<?xml version="1.0"?>
<svg xmlns="http://www.w3.org/2000/svg" height="512px" viewBox="0 -81 512.001 512" width="512px"><g fill-rule="evenodd"><path d="m461.816406 0h-165.816406c-5.523438 0-10 4.476562-10 10s4.476562 10 10 10h165.816406c16.644532 0 30.183594 13.539062 30.183594 30.183594v209h-472v-209c0-16.644532 13.539062-30.183594 30.183594-30.183594h165.816406c5.523438 0 10-4.476562 10-10s-4.476562-10-10-10h-165.816406c-27.671875 0-50.183594 22.511719-50.183594 50.183594v250.394531c0 27.671875 22.511719 50.183594 50.183594 50.183594h411.632812c27.671875 0 50.183594-22.511719 50.183594-50.183594v-250.394531c0-27.671875-22.511719-50.183594-50.183594-50.183594zm30.183594 300.578125c0 16.644531-13.539062 30.183594-30.183594 30.183594h-411.632812c-16.644532 0-30.183594-13.539063-30.183594-30.183594v-21.394531h472zm0 0" fill="#FFFFFF"/><path d="m219.457031 314.972656h73.085938c5.519531 0 10-4.476562 10-10 0-5.519531-4.480469-10-10-10h-73.085938c-5.523437 0-10 4.480469-10 10 0 5.523438 4.476563 10 10 10zm0 0" fill="#FFFFFF"/><path d="m379.65625 232.050781c1.808594 3.007813 5.0625 4.847657 8.570312 4.847657 3.511719 0 6.761719-1.839844 8.570313-4.847657l53.253906-88.578125c.21875-.363281.414063-.738281.582031-1.128906 3.808594-8.660156 5.738282-17.875 5.738282-27.390625 0-37.574219-30.570313-68.144531-68.144532-68.144531-37.574218 0-68.144531 30.570312-68.144531 68.144531 0 9.515625 1.933594 18.730469 5.738281 27.390625.167969.390625.363282.765625.582032 1.128906zm8.570312-165.242187c26.546876 0 48.144532 21.597656 48.144532 48.144531 0 6.519531-1.277344 12.839844-3.804688 18.785156l-44.339844 73.75-44.335937-73.75c-2.527344-5.945312-3.804687-12.261719-3.804687-18.789062 0-26.542969 21.597656-48.140625 48.140624-48.140625zm0 0" fill="#FFFFFF"/><path d="m388.226562 146.046875c17.148438 0 31.097657-13.949219 31.097657-31.09375 0-17.148437-13.949219-31.097656-31.097657-31.097656-17.144531 0-31.09375 13.949219-31.09375 31.097656 0 17.144531 13.949219 31.09375 31.09375 31.09375zm0-42.191406c6.121094 0 11.097657 4.976562 11.097657 11.097656 0 6.117187-4.976563 11.09375-11.097657 11.09375-6.117187 0-11.09375-4.976563-11.09375-11.09375 0-6.121094 4.976563-11.097656 11.09375-11.097656zm0 0" fill="#FFFFFF"/><path d="m269.5625 140.332031h-119.421875c-5.523437 0-10 4.476563-10 10v81.183594c0 5.523437 4.476563 10 10 10s10-4.476563 10-10v-71.183594h109.421875c5.523438 0 10-4.476562 10-10 0-5.523437-4.476562-10-10-10zm0 0" fill="#FFFFFF"/><path d="m160.140625 51.441406c0-5.523437-4.476563-10-10-10s-10 4.476563-10 10v51.046875c0 5.519531 4.476563 10 10 10h119.421875c5.523438 0 10-4.480469 10-10 0-5.523437-4.476562-10-10-10h-109.421875zm0 0" fill="#FFFFFF"/><path d="m112.296875 51.441406c0-5.523437-4.476563-10-10-10s-10 4.476563-10 10v41.046875h-32.007813c-5.523437 0-10 4.476563-10 10 0 5.519531 4.476563 10 10 10h42.007813c5.523437 0 10-4.480469 10-10zm0 0" fill="#FFFFFF"/><path d="m102.296875 241.515625c5.523437 0 10-4.476563 10-10v-81.183594c0-5.523437-4.476563-10-10-10h-42.007813c-5.523437 0-10 4.476563-10 10 0 5.523438 4.476563 10 10 10h32.007813v71.183594c0 5.523437 4.476563 10 10 10zm0 0" fill="#FFFFFF"/><path d="m256 20c5.507812 0 10-4.492188 10-10s-4.492188-10-10-10-10 4.492188-10 10 4.492188 10 10 10zm0 0" fill="#FFFFFF"/></g></svg>
